<?xml version="1.0" encoding="utf-8"?>
<!DOCTYPE svg PUBLIC "-//W3C//DTD SVG 1.1//EN" "http://www.w3.org/Graphics/SVG/1.1/DTD/svg11.dtd">
<svg version="1.1" xmlns="http://www.w3.org/2000/svg" xmlns:xlink="http://www.w3.org/1999/xlink" x="0px" y="0px" viewBox="0 0 1000 1000" enable-background="new 0 0 500 500" xml:space="preserve">
<g><g transform="translate(0.000000,511.000000) scale(0.100000,-0.100000)"><path d="M1491.7,4498c-444.4-444.4-512-521.7-512-586.9c0-96.6,94.2-186,195.6-186c60.4,0,115.9,43.5,342.9,268.1c149.7,149.7,277.7,270.5,285,270.5c7.2,0,14.5-770.4,14.5-1714.8c0-941.9-4.8-1714.8-12.1-1714.8c-7.3,0-135.3,120.8-285,270.5c-227,224.6-287.4,268.1-347.8,268.1c-99,0-193.2-89.4-193.2-186c0-65.2,67.6-142.5,514.4-586.9l512-512l514.4,499.9c487.9,475.8,512,504.8,512,591.7c0,96.6-65.2,183.6-137.7,188.4c-111.1,7.2-157-24.2-410.6-275.3l-272.9-270.5v1726.9v1726.9l272.9-268.1c147.3-147.3,289.8-275.3,311.6-282.6c58-21.7,183.5,26.6,212.5,79.7c14.5,24.2,24.2,79.7,24.2,120.8c0,84.5,12.1,72.5-652.1,719.7L2003.7,5010L1491.7,4498z"/><path d="M4626.6,3981.1c-147.3-53.1-364.7-272.9-425.1-429.9c-43.5-115.9-45.9-219.8-53.1-2444.2l-7.3-2321l-214.9,94.2c-499.9,214.9-1111,374.4-1357.3,352.6c-272.9-24.2-538.6-222.2-666.6-495.1c-55.6-118.4-65.2-169.1-65.2-367.1c0-200.4,9.7-243.9,65.2-350.2c67.6-128,231.9-297,350.2-357.4c36.2-19.4,207.7-70.1,379.2-113.6c531.3-130.4,941.9-335.7,1352.5-678.7c236.7-200.5,359.9-335.7,579.6-637.6c77.3-106.3,190.8-246.3,253.6-309.1c456.5-475.8,1195.5-751.2,1898.3-710.1c623.1,38.7,1183.4,294.6,1608.5,734.2c289.8,299.4,449.2,560.3,574.8,944.3c120.8,362.3,128,490.3,118.3,2432.1l-7.2,1787.3l-55.5,120.8c-166.7,359.9-562.7,528.9-944.4,400.9c-84.5-29-154.6-50.7-157-45.9c-4.8,4.8-29,45.9-58,91.8c-77.3,130.4-195.6,231.9-350.2,301.9c-120.8,55.5-166.7,65.2-326.1,55.5c-130.4-4.8-217.4-24.2-294.6-60.4c-79.7-41.1-111.1-48.3-125.6-24.2c-190.8,330.9-579.6,485.5-910.5,357.5l-118.3-45.9l-9.7,596.5c-7.2,565.1-9.6,601.4-65.2,722.1c-72.5,159.4-272.9,347.8-427.5,400.9C5025.1,4031.9,4769,4029.4,4626.6,3981.1z M5104.8,3587.5c45.9-29,99-91.8,125.6-152.1c45.9-96.6,48.3-178.7,48.3-1886.3V-238.2l53.1-55.5c72.5-77.3,195.6-74.9,272.9,4.8l60.4,58v956.4c0,910.5,2.4,961.2,48.3,1050.6c123.2,239.1,466.1,253.6,623.1,24.2c53.1-79.7,53.1-84.5,53.1-1031.3c0-678.7,7.2-968.5,29-1004.7c65.2-125.6,193.2-149.8,301.9-55.6l67.6,58l12.1,842.9c12.1,758.4,16.9,847.7,55.6,905.7c132.8,193.2,473.4,181.1,601.4-21.7c50.7-84.5,50.7-111.1,57.9-862.2c2.4-425.1,12.1-794.6,21.7-821.2c24.2-55.5,142.5-106.3,217.4-91.8c31.4,4.8,77.3,31.4,101.4,58c38.6,43.4,45.9,113.5,55.5,671.4c12.1,582.1,14.5,628,62.8,693.2c154.6,212.5,478.2,195.6,606.2-31.4l55.5-94.2V-747.8c0-1086.8-9.7-1823.5-24.2-1920.1c-149.7-949.1-939.5-1668.9-1898.3-1731.7c-403.3-26.6-888.8,86.9-1224.5,285c-219.8,130.4-471,372-611,584.5c-62.8,96.6-251.2,309.1-417.8,478.2c-533.8,531.3-1055.4,823.6-1772.7,987.8c-130.4,31.4-270.5,77.3-311.6,106.3c-159.4,108.7-212.5,357.5-118.3,543.4c62.8,123.2,200.5,239.1,304.3,258.4c239.1,43.5,1113.4-231.9,1567.5-497.5c190.8-111.1,272.9-120.8,350.2-38.6l53.1,55.6l4.8,2509.4c4.8,2507,4.8,2509.4,55.6,2589.1c29,45.9,82.1,101.4,120.8,128C4810.1,3652.7,4998.5,3650.3,5104.8,3587.5z"/></g></g>
</svg>
